<?xml version="1.0" standalone="no"?>
<!DOCTYPE svg PUBLIC "-//W3C//DTD SVG 20010904//EN"
 "http://www.w3.org/TR/2001/REC-SVG-20010904/DTD/svg10.dtd">
<svg version="1.0" xmlns="http://www.w3.org/2000/svg"
 width="512.000000pt" height="512.000000pt" viewBox="0 0 512.000000 512.000000"
 preserveAspectRatio="xMidYMid meet">
<metadata>
Created by potrace 1.16, written by Peter Selinger 2001-2019
</metadata>
<g transform="translate(0.000000,512.000000) scale(0.100000,-0.100000)"
fill="#000000" stroke="none">
<path d="M2966 4630 c-38 -23 -100 -57 -138 -77 -37 -19 -68 -42 -68 -50 0 -7
-30 -27 -67 -44 -120 -54 -455 -197 -543 -231 -76 -29 -85 -36 -88 -60 -3 -23
-8 -28 -31 -28 -50 0 -587 -164 -613 -188 -28 -24 -22 -65 17 -113 45 -53 52
-66 65 -123 13 -61 0 -113 -40 -154 -47 -50 -52 -40 114 -217 36 -38 66 -73
66 -78 0 -13 -48 -31 -300 -113 -129 -42 -241 -81 -247 -87 -32 -25 -5 -110
57 -181 64 -73 89 -159 57 -198 -6 -8 -136 -64 -287 -123 -151 -59 -286 -114
-299 -122 -19 -12 -22 -21 -18 -49 9 -55 45 -102 97 -129 26 -13 57 -36 69
-50 43 -55 36 -171 -12 -192 -12 -6 -37 -23 -55 -38 -56 -47 -39 -86 57 -130
35 -15 48 -30 72 -78 51 -100 49 -194 -6 -268 -14 -19 -33 -51 -42 -72 -14
-32 -29 -45 -85 -73 -80 -40 -100 -69 -75 -108 16 -23 72 -55 437 -244 217
-112 598 -310 835 -434 110 -58 217 -111 238 -118 101 -33 211 3 411 133 283
184 1836 1223 1873 1253 50 41 63 84 42 147 -7 23 -13 67 -14 97 0 42 -6 63
-25 89 -17 25 -24 46 -22 76 2 56 28 124 59 157 24 26 25 28 12 76 -12 49 -11
51 14 82 23 26 27 41 27 90 0 32 -4 70 -10 84 -10 28 0 24 -345 124 l-200 58
-3 42 c-2 27 -9 45 -20 51 -10 5 -71 19 -135 31 -65 12 -127 24 -138 29 -16 5
41 37 256 142 153 73 288 144 301 156 21 20 24 31 24 100 0 43 -8 107 -16 143
-9 36 -16 96 -16 134 0 61 5 80 46 165 39 83 45 105 47 166 1 66 -20 209 -35
234 -21 33 -215 93 -746 231 -151 39 -313 82 -360 96 -46 13 -93 24 -105 24
-11 0 -51 -18 -89 -40z m289 -41 c951 -255 977 -263 962 -302 -5 -14 -85 -70
-248 -172 l-36 -24 -32 33 -31 32 110 69 c61 37 113 72 116 76 5 9 -54 37 -95
44 -17 3 -11 -2 17 -15 23 -12 41 -24 38 -28 -2 -4 -40 -29 -83 -56 -43 -27
-87 -57 -98 -67 -19 -17 -21 -17 -48 5 l-28 22 52 33 c44 27 50 34 38 45 -21
20 -788 266 -828 266 -8 0 -69 -29 -135 -64 -140 -74 -606 -290 -685 -317 -45
-16 -60 -17 -92 -7 -22 6 -39 14 -39 18 0 3 26 14 58 24 54 17 278 111 492
206 52 23 131 57 175 75 44 18 114 50 155 70 97 47 46 41 -65 -8 -44 -19 -91
-38 -105 -42 -23 -6 -24 -5 -5 7 48 30 231 127 240 128 6 0 96 -23 200 -51z
m222 -181 c138 -45 250 -86 247 -89 -2 -4 -18 -4 -34 1 -23 7 -35 4 -55 -12
-35 -27 -32 -35 16 -40 30 -3 51 2 77 19 21 12 31 23 23 23 -8 0 -12 2 -9 5 3
3 16 1 29 -4 13 -5 18 -10 11 -10 -7 -1 -28 -12 -46 -26 -18 -14 -36 -22 -41
-17 -5 4 -5 1 -1 -5 10 -18 26 -16 50 5 20 16 20 16 6 -2 -8 -11 -10 -17 -5
-15 49 22 65 34 61 46 -4 9 -2 11 7 6 6 -4 21 -6 32 -4 11 1 -2 -12 -30 -30
-51 -33 -88 -39 -124 -20 -11 6 -29 11 -41 11 -12 0 -30 5 -42 11 -20 11 -19
12 13 45 27 28 29 34 15 34 -10 0 -34 -16 -53 -36 -33 -35 -33 -37 -14 -50 10
-8 56 -23 101 -33 45 -11 85 -22 87 -25 3 -2 -5 -9 -16 -16 -17 -8 -26 -8 -43
4 -19 14 -24 13 -49 -5 -15 -10 -46 -30 -70 -43 -40 -23 -41 -24 -19 -36 20
-11 7 -21 -177 -130 -109 -64 -231 -136 -271 -160 -55 -31 -77 -50 -88 -75
-11 -28 -32 -44 -120 -91 -150 -80 -154 -81 -249 -49 -76 25 -765 299 -794
315 -9 5 12 17 65 38 199 77 860 390 827 391 -7 1 -102 -42 -210 -95 -217
-106 -562 -260 -702 -315 -16 -7 -21 -13 -14 -20 10 -10 154 -70 523 -218 211
-85 368 -141 394 -141 9 0 75 30 147 67 110 56 133 72 147 101 13 26 37 46 97
80 119 66 405 236 528 314 60 37 114 68 120 68 7 -1 41 -24 76 -52 l64 -51
-64 -40 c-76 -48 -379 -231 -756 -456 -257 -153 -299 -181 -274 -181 13 0 311
175 731 428 168 102 320 194 339 205 l34 21 -6 -100 c-9 -140 -50 -275 -98
-323 -14 -14 -61 -48 -105 -75 -103 -64 -784 -455 -784 -451 0 12 151 107 330
210 228 130 323 189 342 212 34 41 -329 -168 -582 -335 -96 -63 -194 -128
-218 -144 -24 -15 -45 -28 -48 -28 -2 0 3 14 12 32 9 17 22 50 30 72 l14 41
-5 -40 c-5 -35 -4 -37 7 -20 21 35 23 188 3 263 -30 114 -21 107 -273 203 -86
33 -321 125 -521 206 l-364 147 154 51 c157 53 248 93 284 125 11 10 54 28 95
41 41 12 127 46 190 74 180 81 455 211 570 269 l105 53 80 -24 c44 -13 193
-60 332 -105z m767 -190 c3 -17 3 -35 -1 -39 -11 -11 -266 -150 -269 -147 -1
2 -4 14 -6 28 -3 21 12 34 127 107 72 45 133 83 136 83 4 0 9 -14 13 -32z
m-557 -63 c-11 -7 -26 -11 -35 -7 -14 5 -12 7 8 13 39 11 46 9 27 -6z m571
-22 c-3 -14 -270 -183 -290 -183 -4 0 -8 9 -8 19 0 14 37 40 143 99 78 45 146
81 150 81 5 1 7 -7 5 -16z m-618 -8 c0 -9 -44 -23 -54 -18 -4 3 -2 9 5 14 15
10 49 12 49 4z m-1569 -31 c-38 -27 -165 -77 -310 -123 -75 -24 -130 -46 -125
-51 16 -16 578 -244 887 -360 227 -86 252 -98 260 -130 5 -21 5 -20 -16 2 -13
14 -85 48 -172 82 -82 32 -292 115 -465 184 -173 69 -389 153 -480 188 l-164
62 189 60 c298 95 317 100 370 101 49 1 49 1 26 -15z m2187 -26 c-6 -17 -298
-191 -306 -183 -9 9 8 20 166 117 129 79 147 87 140 66z m-19 -73 c-29 -30
-311 -194 -297 -174 7 11 78 60 158 109 135 82 175 100 139 65z m-19 -59 c0
-2 -13 -30 -30 -62 -16 -32 -30 -67 -30 -76 0 -18 -161 -131 -323 -226 -93
-55 -128 -69 -62 -26 70 47 94 76 122 147 30 76 26 73 218 190 84 52 105 62
105 53z m-2632 -55 c70 -27 263 -104 427 -172 165 -67 390 -157 501 -198 110
-42 211 -84 225 -93 l24 -17 -31 0 c-42 -1 -300 89 -480 168 -110 48 -444 186
-636 264 -101 40 -178 77 -178 84 0 19 10 17 148 -36z m512 -281 c341 -147
500 -209 608 -235 39 -9 72 -21 72 -26 0 -14 -19 -11 -145 25 -186 54 -426
145 -639 243 -67 30 -188 84 -271 120 -214 93 -252 112 -258 127 -7 16 184
-60 633 -254z m-344 79 c345 -150 700 -297 808 -335 55 -19 88 -32 71 -29
l-30 5 25 -14 c14 -7 52 -22 85 -32 33 -10 65 -22 70 -27 18 -16 -56 4 -185
50 -69 25 -213 76 -320 113 -107 37 -271 100 -365 140 -93 40 -215 88 -269
109 -55 20 -101 41 -103 48 -4 10 189 -63 376 -141 35 -15 65 -25 68 -22 8 7
-59 38 -252 116 -99 40 -186 77 -192 82 -15 12 -17 28 -5 28 4 0 102 -41 218
-91z m2402 6 c-2 -3 -49 -25 -103 -50 -116 -54 -114 -48 10 29 69 43 91 52 93
40 2 -9 2 -17 0 -19z m-2403 -110 c105 -42 226 -90 270 -107 44 -17 154 -66
245 -109 150 -70 317 -137 458 -184 86 -28 53 -28 -44 1 -49 14 -152 53 -229
86 -220 95 -343 147 -435 183 -47 19 -152 61 -235 94 -198 78 -245 100 -245
113 0 5 6 8 13 5 6 -3 98 -40 202 -82z m2425 71 c0 -11 -162 -86 -295 -136
-69 -26 -1 13 110 63 66 29 134 61 150 70 37 20 35 20 35 3z m-1902 -331 c128
-54 230 -100 228 -102 -5 -6 -211 74 -581 225 -411 167 -397 161 -391 171 6 9
358 -130 744 -294z m1920 260 c-2 -2 -369 -156 -435 -182 -7 -3 -13 0 -13 6 0
14 31 30 250 126 149 66 187 79 193 68 5 -8 7 -16 5 -18z m-2548 -50 c294
-126 659 -268 970 -375 122 -42 160 -60 128 -60 -74 0 -1215 445 -1226 478 -4
14 0 12 128 -43z m66 -92 c-5 -5 -226 90 -226 97 0 4 52 -15 115 -43 63 -28
113 -52 111 -54z m2484 93 c0 -15 -102 -58 -321 -136 -197 -71 -158 -47 111
67 107 45 198 82 203 83 4 0 7 -6 7 -14z m-485 -115 l0 -99 -215 -113 c-331
-173 -549 -289 -614 -326 -32 -19 -61 -31 -64 -28 -4 3 -11 25 -17 48 -6 23
-15 52 -18 63 -7 19 3 27 85 69 94 48 733 418 798 461 19 13 37 24 40 24 3 0
5 -45 5 -99z m135 85 c0 -2 -7 -7 -16 -10 -8 -3 -12 -2 -9 4 6 10 25 14 25 6z
m357 -32 c-5 -5 -443 -185 -487 -200 -8 -3 -6 0 5 7 23 15 465 198 479 199 5
0 7 -3 3 -6z m-2392 -127 c94 -35 226 -88 295 -117 262 -110 298 -124 415
-166 66 -24 115 -43 109 -43 -24 -2 -316 101 -430 150 -65 28 -238 98 -383
154 -145 57 -269 109 -275 115 -13 13 42 -6 269 -93z m-55 83 c8 -5 11 -10 5
-10 -5 0 -17 5 -25 10 -8 5 -10 10 -5 10 6 0 17 -5 25 -10z m2440 -4 c-24 -23
-698 -292 -707 -282 -8 8 141 74 417 184 291 116 318 125 290 98z m-1738 -96
c101 -39 213 -82 251 -96 95 -37 83 -48 -15 -15 -151 51 -452 179 -426 181 4
0 89 -32 190 -70z m-316 -163 c198 -82 326 -126 478 -163 55 -13 103 -27 107
-31 4 -5 11 -20 14 -35 l7 -28 -98 36 c-240 87 -296 109 -594 227 -173 68
-336 132 -362 142 -25 9 -56 28 -68 40 -18 19 9 11 157 -45 98 -37 259 -101
359 -143z m649 132 c14 -14 -44 -9 -90 6 l-40 14 60 -6 c33 -3 64 -9 70 -14z
m-860 -106 c132 -52 367 -143 523 -202 156 -60 286 -111 289 -115 20 -19 -15
-14 -84 14 -43 17 -202 79 -353 137 -617 236 -640 245 -640 264 0 6 5 7 12 3
7 -4 120 -50 253 -101z m660 1 c24 -11 25 -13 5 -8 -14 4 -38 13 -55 20 -24
11 -25 13 -5 8 14 -4 39 -13 55 -20z m-61 -63 c115 -37 204 -71 197 -75 -13
-8 -156 37 -306 97 -90 36 -116 47 -104 47 2 0 98 -31 213 -69z m-1004 49 c0
-6 10 -15 23 -20 17 -7 18 -9 5 -9 -10 -1 -18 -5 -18 -9 0 -5 -43 -26 -95 -46
-52 -21 -95 -41 -95 -46 0 -10 1 -10 170 -70 74 -26 144 -51 155 -55 16 -7 18
-5 8 5 -14 16 0 40 23 40 8 0 14 5 14 10 0 13 -3 13 -45 -7 -35 -17 -38 -16
-106 6 -38 13 -69 28 -69 33 0 4 -16 8 -37 8 -20 0 -33 3 -30 7 6 5 166 75
292 127 28 11 32 10 56 -15 l27 -28 -24 -16 c-54 -35 -16 -97 70 -114 105 -21
232 -41 256 -40 23 0 23 1 5 9 -36 15 -120 39 -163 46 -23 3 -39 11 -36 16 10
15 -37 58 -63 58 -32 0 -29 -15 7 -30 41 -17 33 -22 -13 -9 -27 7 -37 15 -37
29 0 13 7 20 20 20 11 0 36 7 55 14 19 8 35 11 35 6 0 -5 14 -7 30 -3 20 3 30
1 30 -6 0 -7 6 -9 13 -6 6 3 4 0 -6 -7 -10 -7 -26 -18 -35 -25 -26 -18 -7 -26
25 -10 17 9 35 11 48 6 11 -4 14 -8 7 -8 -7 -1 -11 -5 -7 -10 3 -6 -8 -8 -28
-4 -25 4 -34 1 -34 -9 0 -10 22 -18 70 -26 64 -11 74 -11 110 7 l40 20 75 -30
c42 -17 80 -33 85 -36 5 -3 -24 -23 -65 -45 -140 -77 -347 -200 -358 -213 -10
-12 -49 5 -218 89 -114 57 -247 119 -297 138 -49 19 -134 52 -187 72 -54 21
-98 42 -98 47 0 13 46 32 209 84 79 26 150 44 158 41 8 -3 12 -2 8 3 -3 5 1
12 7 14 21 9 28 8 28 -3z m1190 -25 c19 -7 28 -13 20 -13 -8 0 -31 6 -50 13
-19 7 -28 13 -20 13 8 0 31 -6 50 -13z m-1116 -29 c-30 -22 -195 -86 -218 -86
-20 1 -20 1 -3 11 23 14 219 88 232 89 5 0 0 -6 -11 -14z m1776 -51 c-14 -8
-29 -14 -35 -14 -5 0 1 6 15 14 14 8 30 14 35 14 6 0 -1 -6 -15 -14z m351 -36
c143 -28 142 -27 85 -56 -46 -23 -52 -24 -80 -11 -17 8 -70 25 -118 38 -87 23
-105 34 -70 43 36 10 83 6 183 -14z m-281 -4 c0 -5 -7 -8 -238 -106 -219 -92
-408 -191 -577 -303 -77 -51 -165 -108 -195 -128 -75 -48 -401 -243 -441 -264
-60 -30 -108 -16 -350 101 -122 59 -277 132 -343 162 -67 30 -128 61 -136 69
-20 20 30 -2 315 -138 376 -180 417 -198 457 -198 20 0 38 4 40 9 2 5 72 56
156 113 480 323 932 564 1252 669 66 21 60 20 60 14z m-773 -21 c-3 -3 -12 -4
-19 -1 -8 3 -5 6 6 6 11 1 17 -2 13 -5z m899 -8 c27 -8 75 -22 107 -30 32 -9
55 -21 52 -26 -3 -5 -89 -52 -192 -104 -150 -78 -194 -96 -229 -96 -23 0 -46
-4 -49 -10 -8 -13 -75 -13 -75 0 0 5 15 7 33 5 17 -3 26 -3 20 1 -7 3 -13 12
-13 20 0 19 0 19 -71 -17 -44 -23 -57 -34 -48 -40 8 -5 23 -9 34 -9 16 0 17 2
5 10 -21 13 -10 16 34 10 l39 -5 -114 -58 -115 -58 -119 31 c-66 17 -121 33
-123 34 -5 5 204 121 283 157 196 90 452 198 471 199 11 0 43 -6 70 -14z m334
-20 c0 -21 -366 -229 -695 -394 -55 -28 -109 -58 -120 -67 -20 -16 -19 -16 5
-10 22 6 300 150 514 265 71 39 77 41 65 19 -7 -13 -12 -53 -12 -90 l1 -65
-266 -146 -267 -146 -30 76 c-38 94 -46 99 -231 153 -76 22 -145 44 -153 49
-32 19 33 10 156 -20 l121 -29 155 74 c103 50 166 74 188 74 25 -1 103 35 294
134 143 75 263 136 268 136 4 1 7 -5 7 -13z m-2601 -58 c173 -65 601 -270 601
-288 0 -16 -8 -13 -140 56 -205 106 -300 150 -405 189 -203 74 -235 87 -235
96 0 14 3 13 179 -53z m2601 8 c0 -6 -126 -76 -137 -76 -6 0 126 79 135 80 1
0 2 -2 2 -4z m-2481 -107 c35 -16 62 -32 59 -34 -3 -3 -38 10 -79 28 -41 19
-108 46 -149 62 -41 15 -79 32 -85 37 -14 13 177 -57 254 -93z m888 43 c-59
-31 -151 -89 -205 -128 -53 -39 -107 -76 -120 -83 -23 -12 -62 -7 -62 9 0 12
275 174 375 221 124 59 133 45 12 -19z m1891 -42 c61 -18 112 -36 112 -39 -1
-7 -391 -263 -395 -259 -1 2 -6 24 -9 51 -5 35 -4 47 5 47 19 0 259 152 254
161 -3 4 -17 10 -32 13 -33 8 -217 67 -221 71 -1 1 0 9 4 18 6 17 13 15 282
-63z m-1878 2 c-110 -60 -180 -106 -233 -151 -41 -35 -127 -85 -127 -73 0 4
18 18 39 30 22 13 82 53 133 90 86 62 259 161 283 162 6 0 -37 -26 -95 -58z
m-875 -52 c215 -74 237 -85 267 -130 26 -39 107 -92 181 -118 26 -9 47 -22 47
-29 0 -7 -2 -13 -4 -13 -13 0 -385 188 -380 192 6 7 -119 67 -241 116 -49 19
-93 40 -97 46 -15 22 -7 26 20 12 15 -7 108 -42 207 -76z m995 75 c0 -3 -37
-23 -82 -46 -127 -63 -207 -113 -273 -169 -63 -54 -115 -86 -115 -72 0 5 11
14 24 20 12 5 47 30 77 54 89 72 174 126 271 173 108 50 98 46 98 40z m50 -28
c-19 -13 -100 -59 -180 -101 -80 -43 -185 -107 -234 -142 -49 -35 -92 -62 -94
-59 -3 3 -3 6 -1 8 2 1 47 34 99 73 111 83 125 92 290 178 124 65 187 87 120
43z m1310 19 c0 -2 -20 -16 -45 -30 -25 -13 -43 -21 -40 -15 4 5 23 18 43 29
41 21 42 22 42 16z m70 -5 c0 -11 -171 -113 -178 -106 -7 7 -8 6 88 64 94 56
90 54 90 42z m99 -17 c10 -9 -35 -3 -49 6 -11 8 -7 9 15 4 17 -4 32 -8 34 -10z
m-1389 1 c0 -2 -13 -11 -30 -20 -38 -19 -40 -11 -2 9 31 17 32 18 32 11z
m-1300 -25 c19 -11 31 -19 25 -19 -5 0 -26 8 -45 19 -19 11 -30 19 -25 19 6 0
26 -8 45 -19z m2679 -21 c-43 -23 -46 -23 -54 1 -10 32 1 39 46 27 l42 -10
-34 -18z m105 17 c32 -10 56 -19 53 -22 -6 -6 -108 -69 -165 -101 -26 -16 -49
-22 -60 -18 -14 6 -12 9 13 18 17 5 36 14 43 20 18 14 -4 37 -37 37 -20 1 -23
3 -10 10 9 5 31 5 55 -1 35 -9 46 -7 88 14 l49 25 -57 16 c-31 9 -56 19 -56
22 0 4 6 4 13 1 6 -2 38 -12 71 -21z m-1554 -11 c0 -2 -14 -12 -30 -20 -17 -9
-28 -20 -25 -25 4 -6 -1 -7 -11 -3 -11 4 -15 3 -10 -5 3 -6 1 -14 -5 -18 -8
-4 -9 -3 -5 4 10 16 1 15 -35 -3 -16 -9 -27 -20 -24 -25 3 -6 0 -7 -8 -4 -8 3
-14 -2 -14 -11 0 -10 6 -14 16 -10 12 5 13 3 5 -5 -9 -9 -17 -9 -32 -1 -28 15
-41 13 -20 -3 15 -11 11 -15 -38 -39 -31 -15 -53 -24 -50 -19 3 5 23 17 46 27
26 12 37 22 31 28 -6 6 -43 -13 -103 -53 -100 -67 -124 -87 -95 -77 24 9 21 0
-4 -14 -17 -8 -20 -8 -14 1 5 8 3 11 -6 8 -8 -3 -13 -10 -12 -16 2 -6 -7 -16
-18 -23 -15 -8 -19 -8 -15 0 9 14 0 14 -25 1 -10 -6 -19 -8 -19 -6 0 12 218
150 361 230 164 91 159 88 159 81z m1333 -13 c-43 -33 -143 -92 -143 -85 0 8
149 103 160 103 3 0 -5 -8 -17 -18z m-2483 -7 c14 -8 21 -14 15 -14 -5 0 -21
6 -35 14 -14 8 -20 14 -15 14 6 0 21 -6 35 -14z m2663 8 c-7 -2 -19 -2 -25 0
-7 3 -2 5 12 5 14 0 19 -2 13 -5z m382 -7 c19 -8 35 -19 35 -25 0 -11 -59 -48
-330 -209 -428 -254 -648 -386 -687 -412 -44 -31 -53 -29 -53 7 0 26 -12 18
290 198 118 70 241 148 273 173 90 69 410 281 425 282 7 0 28 -7 47 -14z
m-1853 -3 c-6 -2 -10 -9 -7 -14 4 -5 -2 -6 -11 -2 -11 4 -15 3 -10 -5 3 -6 2
-13 -3 -16 -5 -4 -8 1 -7 10 3 16 24 34 41 33 6 0 4 -3 -3 -6z m-1142 -78 c47
-21 168 -77 268 -126 l184 -88 -7 -38 c-6 -38 -5 -39 41 -61 25 -13 44 -25 42
-28 -9 -8 -181 71 -375 173 -103 54 -210 109 -238 121 -86 40 -92 46 -87 85
l4 35 42 -18 c22 -10 79 -35 126 -55z m1260 42 c-65 -39 -328 -188 -490 -277
-63 -35 -134 -75 -157 -88 -24 -13 -43 -20 -43 -15 0 4 58 39 128 77 128 68
199 114 157 102 l-20 -6 20 16 c25 20 75 46 75 40 0 -3 -14 -13 -31 -21 -17
-9 -29 -19 -26 -21 6 -7 109 45 195 98 87 54 224 128 237 128 6 0 -15 -15 -45
-33z m-1250 13 c8 -5 11 -10 5 -10 -5 0 -17 5 -25 10 -8 5 -10 10 -5 10 6 0
17 -5 25 -10z m1054 -22 c-5 -8 -2 -9 9 -5 23 9 21 0 -2 -13 -16 -8 -19 -7
-16 8 5 23 4 22 11 22 3 0 2 -5 -2 -12z m-964 -18 c19 -11 31 -19 25 -19 -5 0
-26 8 -45 19 -19 11 -30 19 -25 19 6 0 26 -8 45 -19z m2410 0 c-20 -13 -53
-13 -45 0 3 6 18 10 33 10 21 0 24 -2 12 -10z m-40 -137 c6 -25 7 -50 3 -54
-17 -16 -265 -169 -397 -245 -86 -49 -143 -88 -149 -102 -8 -17 -7 -43 1 -94
7 -39 9 -75 5 -79 -14 -14 -218 -128 -221 -124 -2 2 4 48 13 102 18 106 14
209 -11 292 -7 25 -12 46 -11 46 27 16 327 181 425 235 73 39 165 92 204 116
l71 43 29 -45 c15 -25 33 -66 38 -91z m570 120 c0 -10 -10 -23 -23 -29 -97
-46 -571 -325 -597 -351 -24 -24 180 81 404 209 115 65 211 117 214 114 5 -6
-58 -45 -253 -157 -77 -45 -225 -132 -330 -194 -104 -62 -253 -149 -330 -194
l-140 -80 -7 27 c-5 15 -6 32 -4 38 4 11 281 178 736 444 135 79 261 154 280
167 41 28 50 29 50 6z m-2000 2 c0 -2 -10 -9 -22 -15 -22 -11 -22 -10 -4 4 21
17 26 19 26 11z m50 -20 c0 -2 -10 -9 -22 -15 -22 -11 -22 -10 -4 4 21 17 26
19 26 11z m-1190 -45 c41 -21 72 -39 69 -40 -11 0 -159 69 -159 75 0 10 15 4
90 -35z m521 0 c75 -36 118 -70 89 -70 -24 0 -180 89 -180 103 0 11 2 10 91
-33z m609 35 c0 -3 -27 -18 -60 -35 -33 -17 -60 -28 -60 -25 0 2 26 18 58 34
64 34 62 33 62 26z m-1093 -85 c34 -12 68 -20 75 -18 7 3 118 -48 247 -114
129 -65 240 -118 247 -118 8 0 14 -4 14 -10 0 -12 -6 -9 -180 68 -74 33 -184
76 -244 96 -146 49 -316 130 -316 150 0 14 7 13 48 -8 26 -13 75 -33 109 -46z
m-218 34 c-26 -28 -89 -60 -213 -106 -97 -35 -96 -35 -90 -52 8 -20 103 -64
374 -173 201 -81 310 -129 250 -110 -8 3 -123 48 -255 100 -132 52 -300 116
-374 143 l-133 48 218 87 c121 48 225 88 233 88 10 1 6 -8 -10 -25z m1193 14
c-12 -6 -21 -18 -20 -26 2 -8 -4 -17 -12 -19 -12 -4 -12 -3 -1 5 17 12 -1 23
-19 11 -8 -5 -19 -9 -25 -8 -5 0 10 11 35 24 25 13 50 24 55 24 6 0 0 -5 -13
-11z m108 7 c0 -2 -13 -11 -30 -20 -38 -19 -40 -11 -2 9 31 17 32 18 32 11z
m324 -31 c123 -31 256 -76 276 -92 18 -16 75 -160 66 -169 -8 -8 -46 51 -57
88 -7 21 -21 47 -33 57 -12 10 -94 42 -183 71 -90 28 -163 54 -163 56 0 9 32
5 94 -11z m-550 -16 c-5 -8 -1 -9 12 -5 18 7 18 6 2 -6 -23 -18 -11 -29 16
-16 20 10 20 10 2 -5 -29 -24 -50 0 -37 42 1 1 4 2 7 2 3 0 2 -5 -2 -12z m-27
-15 c-4 -3 -1 -13 6 -22 11 -14 10 -14 -5 -2 -16 12 -16 31 -1 31 4 0 3 -3 0
-7z m2246 -81 c13 -16 13 -15 -194 -142 -92 -56 -182 -114 -200 -130 l-34 -28
0 -193 0 -194 -121 -82 -121 -82 -6 152 c-4 105 -12 175 -25 225 l-20 74 84
54 c46 30 101 71 122 92 21 20 132 95 248 166 115 71 216 135 224 143 13 12
16 10 24 -14 5 -16 13 -34 19 -41z m-3363 2 c-40 -19 -70 -39 -68 -46 5 -15
64 -36 104 -37 16 -1 34 -5 40 -10 5 -5 54 -23 108 -41 l99 -33 44 22 c50 24
69 26 80 9 19 -30 57 -51 149 -83 55 -18 112 -38 128 -44 l30 -12 -65 -39
c-35 -22 -70 -39 -77 -40 -7 0 -108 38 -225 85 -117 47 -259 104 -317 127
-124 49 -220 95 -220 106 0 8 38 24 159 67 48 18 70 21 84 14 16 -9 8 -15 -53
-45z m1110 42 c0 -2 -38 -25 -85 -51 -47 -25 -85 -49 -85 -52 0 -3 7 -3 15 1
21 8 19 -1 -4 -14 -16 -8 -19 -7 -17 8 2 10 38 37 87 64 88 50 89 51 89 44z
m65 -15 c-15 -14 -217 -122 -221 -119 -3 4 215 126 226 127 2 1 0 -3 -5 -8z
m-75 -16 c0 -2 -10 -9 -22 -15 -22 -11 -22 -10 -4 4 21 17 26 19 26 11z
m-1003 -28 l23 -2 -23 -17 c-27 -21 -33 -22 -48 -5 -7 7 -26 11 -43 10 l-31
-4 25 16 c15 9 35 13 50 9 14 -3 35 -6 47 -7z m1643 -7 c8 -5 11 -10 5 -10 -5
0 -17 5 -25 10 -8 5 -10 10 -5 10 6 0 17 -5 25 -10z m-1510 -16 c17 -10 18
-13 5 -9 -45 16 -54 16 -72 6 -17 -10 -17 -10 2 -12 11 -1 24 -1 28 0 5 1 6
-3 2 -8 -3 -6 -20 -8 -38 -6 l-32 5 32 -15 c24 -11 39 -12 58 -5 15 6 38 10
53 10 26 -1 26 -1 -8 -17 -19 -8 -29 -17 -22 -20 6 -3 12 -8 12 -13 0 -4 -36
4 -80 19 -44 14 -80 29 -80 33 0 11 72 47 95 47 11 0 31 -7 45 -15z m660 -22
c0 -8 -1 -13 -3 -11 -1 2 -9 12 -16 22 -12 15 -12 17 3 11 9 -3 16 -13 16 -22z
m275 20 c-14 -12 -195 -127 -223 -141 -13 -7 -27 -9 -30 -5 -4 4 -2 8 3 11 6
2 64 35 130 73 114 67 141 80 120 62z m358 -7 c26 -11 36 -12 39 -3 3 8 43 0
129 -27 68 -21 126 -41 129 -42 9 -8 -25 -23 -40 -17 -8 3 -11 2 -7 -2 4 -4
-91 -58 -210 -119 -189 -96 -381 -201 -448 -244 -18 -11 -41 -3 -194 73 -96
47 -184 86 -195 86 -14 1 -7 6 19 17 22 8 54 15 70 15 17 -1 40 -1 53 -2 12 0
22 -4 22 -9 0 -11 -29 -23 -40 -16 -5 3 -11 1 -14 -4 -12 -19 16 -22 69 -6 33
9 53 20 49 26 -3 6 20 -4 51 -20 64 -34 124 -40 178 -18 70 30 72 65 6 100
l-34 18 35 -7 c94 -20 221 5 302 59 25 18 34 31 36 58 3 31 -2 41 -33 68 -39
34 -28 40 28 16z m-1683 -87 c36 -14 182 -71 325 -127 143 -57 276 -104 296
-105 20 0 34 -5 31 -10 -3 -5 2 -7 11 -3 39 15 22 -15 -32 -58 -33 -26 -72
-66 -88 -88 -26 -40 -28 -48 -27 -147 0 -102 6 -128 49 -233 7 -18 6 -18 -31
-2 -22 9 -104 51 -184 94 -133 72 -356 189 -488 255 -30 15 -52 30 -49 33 6 6
307 -148 561 -286 147 -80 193 -98 166 -65 -8 8 -40 34 -73 57 -41 28 -69 58
-89 94 -23 41 -44 61 -102 97 -52 33 -76 54 -80 72 -8 29 3 194 13 194 3 0 53
-23 110 -50 57 -28 115 -50 128 -50 31 0 209 63 193 68 -6 2 -41 -6 -79 -17
-38 -12 -80 -21 -93 -21 -14 0 -67 18 -119 40 -52 23 -114 47 -139 54 -49 15
-342 136 -403 168 -22 11 -37 21 -35 24 5 4 131 -48 307 -125 51 -23 96 -40
98 -37 8 8 -38 33 -167 91 -254 115 -270 123 -270 143 0 37 -2 38 260 -60z
m837 10 c100 -46 176 -84 168 -86 -7 -2 -44 10 -82 26 -89 38 -291 141 -278
142 6 0 92 -37 192 -82z m683 78 c0 -2 -83 -54 -185 -116 -101 -61 -187 -115
-190 -121 -4 -5 -11 -9 -18 -9 -19 0 66 58 230 156 160 95 163 97 163 90z
m-500 -26 c8 -5 11 -10 5 -10 -5 0 -17 5 -25 10 -8 5 -10 10 -5 10 6 0 17 -5
25 -10z m30 -26 c0 -8 -5 -12 -10 -9 -6 4 -8 11 -5 16 9 14 15 11 15 -7z
m-550 -1 c0 -9 -57 -43 -71 -43 -18 0 -8 27 14 38 26 13 57 15 57 5z m1080
-13 c0 -13 -11 -13 -30 0 -12 8 -11 10 8 10 12 0 22 -4 22 -10z m55 -12 c14
-6 25 -15 25 -19 0 -9 -47 8 -64 23 -15 12 9 10 39 -4z m-53 -48 c-33 -20
-119 -50 -143 -50 -12 0 -16 5 -13 15 4 9 0 15 -10 15 -9 0 -16 5 -16 10 0 6
20 8 54 4 30 -4 62 -4 70 -1 21 8 9 37 -15 37 -10 0 -19 4 -19 8 0 5 27 2 59
-7 l59 -15 -26 -16z m499 20 c30 -8 39 -14 29 -20 -13 -7 -149 -82 -700 -389
-74 -41 -143 -74 -152 -73 -9 0 -130 59 -268 130 l-250 129 39 18 c40 17 40
17 117 -11 42 -15 140 -58 216 -96 l140 -68 182 101 c241 134 577 301 592 295
7 -3 32 -10 55 -16z m1378 -13 c-67 -53 -139 -103 -194 -139 -124 -79 -145
-90 -145 -79 0 6 39 33 88 62 113 66 154 98 146 111 -4 6 -2 8 4 4 6 -3 13 -2
17 4 8 13 78 50 84 44 2 -2 2 -5 0 -7z m-1819 -6 c0 -9 -24 -21 -43 -21 -6 0
-2 7 9 15 22 17 34 19 34 6z m540 -24 c0 -8 -91 -66 -202 -129 -112 -64 -290
-166 -395 -226 -106 -61 -224 -127 -262 -148 l-69 -37 -208 110 c-115 61 -242
127 -281 148 -40 20 -73 41 -73 46 0 4 9 13 21 19 23 13 11 18 339 -155 96
-51 184 -96 195 -99 20 -6 46 8 558 296 201 113 346 188 365 188 6 0 12 -6 12
-13z m-827 -14 c-7 -2 -19 -2 -25 0 -7 3 -2 5 12 5 14 0 19 -2 13 -5z m2070
-50 c-21 -18 -22 -21 -6 -14 70 34 9 -10 -102 -74 -68 -39 -50 -21 25 25 34
21 57 41 52 44 -5 3 -65 -30 -132 -74 -68 -44 -126 -77 -129 -74 -7 8 2 15
174 127 96 63 141 88 143 78 2 -7 -9 -25 -25 -38z m-2026 41 c-3 -3 -12 -4
-19 -1 -8 3 -5 6 6 6 11 1 17 -2 13 -5z m1923 -14 c-29 -22 -209 -118 -197
-104 9 9 208 122 217 123 3 0 -6 -8 -20 -19z m-3274 -77 c85 -37 134 -64 137
-75 4 -14 -3 -13 -52 9 -31 14 -93 41 -138 60 -45 20 -84 42 -87 49 -3 8 -2
14 1 14 4 0 66 -26 139 -57z m2082 14 c-20 -17 -98 -68 -174 -113 -77 -44
-229 -134 -339 -199 -384 -227 -365 -217 -365 -190 0 20 23 37 153 110 83 48
269 155 412 238 351 202 339 196 344 191 3 -2 -11 -19 -31 -37z m-865 26 c-7
-2 -19 -2 -25 0 -7 3 -2 5 12 5 14 0 19 -2 13 -5z m92 -15 c28 -12 35 -34 8
-23 -10 4 -33 11 -50 17 -18 5 -33 11 -33 13 0 9 50 5 75 -7z m-132 -10 c-13
-6 -23 -18 -23 -26 0 -13 3 -13 18 1 10 10 24 17 32 17 7 0 1 -9 -14 -21 -21
-17 -30 -19 -41 -9 -8 7 -12 16 -9 21 3 5 -3 9 -13 9 -15 0 -16 2 -3 10 8 5
29 9 45 9 29 0 29 -1 8 -11z m2237 -2 c0 -5 -316 -186 -324 -186 -18 0 -1 21
32 41 20 13 43 30 50 39 8 8 11 9 7 3 -3 -7 -4 -13 0 -13 9 0 136 66 180 94
38 24 55 31 55 22z m-2145 -16 c-3 -5 -15 -10 -26 -10 -11 0 -18 -4 -14 -10 4
-6 15 -6 31 0 35 14 51 13 37 -1 -6 -6 -34 -13 -63 -16 l-52 -4 28 25 c28 25
72 36 59 16z m-1268 -56 c121 -51 144 -67 125 -86 -9 -9 -12 -9 -12 1 0 8 -6
11 -16 7 -10 -4 -13 -2 -8 6 5 8 2 9 -10 5 -11 -5 -15 -3 -10 5 5 8 2 9 -10 5
-9 -4 -15 -3 -12 2 3 5 0 11 -7 14 -6 3 -29 13 -50 22 -22 9 -36 11 -32 6 3
-7 0 -8 -9 -5 -9 3 -13 11 -9 17 3 5 1 7 -5 3 -15 -9 -62 14 -62 31 0 19 8 17
127 -33z m3440 30 c2 -5 -25 -25 -59 -43 -35 -19 -115 -65 -179 -103 -64 -37
-120 -68 -123 -68 -4 0 -3 7 2 16 10 18 332 213 346 210 6 -1 11 -7 13 -12z
m-2861 -10 c18 -14 18 -14 -6 -3 -31 14 -36 19 -24 19 6 0 19 -7 30 -16z
m1496 -34 c-12 -10 -114 -72 -225 -136 -111 -64 -292 -171 -401 -237 -220
-132 -306 -175 -306 -153 0 7 35 33 78 58 42 24 214 124 381 222 167 98 340
198 385 222 86 46 129 58 88 24z m-1953 -116 c2 -2 1 -7 -2 -11 -10 -9 -247
108 -247 123 0 9 228 -94 249 -112z m1991 86 c0 -6 -8 -14 -17 -17 -10 -4 -20
-9 -23 -13 -5 -6 -137 -84 -440 -260 -107 -63 -244 -142 -305 -178 -131 -76
-165 -94 -165 -88 0 6 927 558 948 565 1 1 2 -4 2 -9z m-1990 -141 c0 -12
-234 107 -252 129 -7 8 47 -15 120 -52 73 -36 132 -71 132 -77z m3272 115
c-32 -26 -82 -57 -82 -51 0 2 18 16 40 31 23 15 39 30 36 34 -2 4 4 8 15 8 16
0 15 -3 -9 -22z m-681 -54 c11 -39 19 -76 16 -84 -3 -7 -79 -64 -169 -126
-222 -154 -265 -187 -283 -214 -11 -17 -18 -68 -25 -179 -5 -92 -14 -167 -22
-183 -8 -18 -68 -62 -173 -129 -88 -55 -253 -160 -367 -233 -113 -73 -212
-132 -220 -132 -7 0 -22 21 -32 46 l-19 47 24 18 c13 11 144 100 291 200 147
99 283 198 302 219 38 42 51 80 61 180 6 60 -5 192 -21 246 -5 18 9 31 98 87
150 95 502 307 510 307 4 0 17 -32 29 -70z m-595 41 c-4 -5 -75 -51 -159 -101
-284 -172 -327 -196 -327 -183 1 5 42 32 93 61 51 29 160 93 242 142 162 96
159 94 151 81z m-2238 -20 c15 -10 68 -39 117 -64 137 -68 267 -145 295 -174
l25 -26 -35 20 c-19 11 -126 71 -237 133 -112 61 -203 116 -203 121 0 13 9 11
38 -10z m805 -15 c30 -13 103 -51 163 -83 60 -33 162 -88 227 -122 64 -33 109
-61 100 -61 -10 0 -67 28 -128 61 -60 34 -182 99 -270 145 -160 84 -192 105
-92 60z m2776 -14 c7 -24 5 -34 -9 -47 -10 -9 -159 -108 -332 -221 l-313 -203
-3 35 c-2 19 2 42 9 50 18 21 631 426 636 420 2 -2 8 -17 12 -34z m-2703 -76
c134 -68 380 -208 399 -227 7 -7 2 -16 -17 -30 -44 -33 -45 -69 -3 -155 21
-41 36 -77 33 -79 -2 -2 -22 4 -44 14 -56 25 -91 71 -100 129 -3 26 -11 55
-16 65 -15 28 -174 128 -328 207 -77 39 -140 76 -140 83 0 7 9 27 20 44 23 39
15 41 196 -51z m1342 78 c-4 -3 -50 -33 -105 -66 -54 -33 -138 -85 -187 -115
-48 -30 -138 -80 -200 -110 -61 -31 -146 -76 -188 -99 -43 -23 -78 -41 -78
-39 0 2 -30 -17 -67 -41 -37 -24 -73 -44 -80 -44 -15 0 -18 26 -3 35 6 4 7 -1
3 -10 -5 -15 0 -14 33 3 21 11 54 32 73 46 19 14 38 23 42 20 5 -3 9 0 9 6 0
6 71 46 157 87 87 42 254 134 372 205 197 117 235 138 219 122z m-2184 -55
c53 -28 96 -52 96 -55 0 -4 -165 78 -190 95 -34 24 3 8 94 -40z m3326 47 c0
-2 -8 -10 -17 -17 -16 -13 -17 -12 -4 4 13 16 21 21 21 13z m-1162 -35 c-5
-14 -225 -157 -410 -267 -494 -293 -468 -279 -468 -267 0 4 38 32 85 61 85 54
112 76 55 47 -16 -9 -30 -13 -30 -11 0 9 57 36 63 30 9 -9 98 47 91 57 -3 5 3
6 12 2 12 -4 15 -3 10 5 -4 7 -2 10 6 7 13 -5 303 163 488 283 101 66 104 67
98 53z m1122 5 c0 -2 -8 -10 -17 -17 -16 -13 -17 -12 -4 4 13 16 21 21 21 13z
m40 0 c0 -3 -15 -14 -32 -26 l-33 -22 30 26 c31 27 35 29 35 22z m-1135 -45
c-11 -10 -69 -50 -130 -88 -60 -39 -234 -150 -385 -248 -352 -228 -400 -255
-400 -226 0 5 100 69 223 142 332 197 404 242 560 345 78 52 144 94 146 94 3
0 -3 -8 -14 -19z m-1217 -217 c91 -59 112 -83 30 -35 -29 17 -128 73 -220 124
-92 50 -168 96 -168 100 0 12 257 -125 358 -189z m1236 167 c-19 -19 -902
-590 -936 -605 -16 -8 -77 19 -314 139 -162 83 -290 151 -285 153 6 2 140 -62
297 -142 l287 -146 29 18 c15 9 166 107 334 217 482 315 589 383 593 379 3 -3
0 -8 -5 -13z m636 -96 c5 -50 10 -128 10 -175 -1 -81 -2 -86 -28 -105 -21 -15
-434 -292 -489 -327 -7 -5 -6 8 4 40 9 28 18 111 22 204 3 86 11 162 16 167
33 32 440 300 447 293 4 -4 12 -48 18 -97z m-2095 -1 c66 -36 115 -64 109 -62
-30 8 -244 114 -244 121 0 13 14 7 135 -59z m-690 26 c28 -16 46 -30 42 -30
-11 0 -107 49 -107 55 0 10 16 4 65 -25z m679 -55 c44 -20 91 -44 105 -54 14
-10 31 -16 38 -14 16 6 26 -14 12 -23 -8 -5 -9 -3 -4 6 5 8 3 11 -6 8 -8 -3
-27 3 -44 12 -16 10 -68 35 -115 55 -47 21 -92 44 -100 52 -13 12 -12 13 10 4
14 -5 61 -26 104 -46z m-659 3 c22 -9 58 -21 80 -28 43 -14 375 -168 388 -180
4 -4 1 -71 -7 -148 -20 -176 -20 -239 -1 -276 9 -16 14 -30 13 -31 -4 -2 -531
272 -582 303 -31 18 -36 26 -30 45 3 12 8 23 9 25 1 1 86 -39 188 -89 208
-102 209 -102 246 -26 16 33 21 61 20 123 0 43 -4 88 -8 99 -5 13 -66 45 -192
101 -101 45 -185 88 -188 95 -2 7 2 10 10 7 8 -3 32 -12 54 -20z m1625 14 c0
-4 -26 -20 -57 -36 -67 -32 -65 -25 4 15 55 32 53 31 53 21z m-950 -61 c149
-73 350 -183 350 -193 0 -5 -15 -1 -32 10 -18 11 -123 65 -233 122 -110 56
-202 105 -205 107 -11 12 49 -12 120 -46z m-549 -61 c168 -72 176 -76 167 -86
-3 -3 -77 28 -164 69 -88 41 -166 77 -174 80 -9 3 -10 6 -2 6 6 1 85 -30 173
-69z m677 -57 c268 -135 375 -193 369 -200 -8 -8 -615 298 -621 313 -3 9 -3
14 1 12 5 -2 117 -58 251 -125z m-648 7 c75 -38 142 -76 150 -86 14 -15 13
-16 -10 -9 -23 7 -229 100 -312 140 -23 11 -38 26 -38 36 0 17 2 17 37 2 21
-8 99 -46 173 -83z m1890 86 c0 -2 -46 -29 -102 -61 -152 -86 -395 -227 -546
-317 -73 -44 -140 -78 -149 -76 -10 2 37 36 117 84 121 73 549 318 625 357 28
15 55 22 55 13z m-1130 -32 c0 -2 -9 0 -20 6 -11 6 -20 13 -20 16 0 2 9 0 20
-6 11 -6 20 -13 20 -16z m75 -72 c-5 -6 -125 51 -125 60 0 5 -4 6 -10 3 -13
-8 -32 4 -25 15 3 5 41 -10 85 -33 43 -23 77 -43 75 -45z m555 83 c0 -2 -10
-9 -22 -15 -22 -11 -22 -10 -4 4 21 17 26 19 26 11z m500 -19 c0 -5 -59 -41
-220 -136 -195 -114 -397 -239 -485 -297 -54 -36 -83 -49 -90 -42 -12 12 -36
-4 245 162 539 320 550 326 550 313z m-1180 -156 c165 -83 300 -155 300 -160
0 -6 -2 -10 -5 -10 -3 0 -130 62 -283 139 -242 121 -345 180 -319 181 4 0 142
-68 307 -150z m120 124 c0 -2 -9 0 -20 6 -11 6 -20 13 -20 16 0 2 9 0 20 -6
11 -6 20 -13 20 -16z m-790 -103 c77 -37 118 -67 107 -77 -12 -12 -357 163
-357 181 0 14 47 -5 250 -104z m1874 53 c4 -29 2 -52 -5 -60 -6 -7 -50 -37
-97 -67 -48 -30 -159 -100 -247 -157 -249 -160 -376 -240 -384 -240 -8 0 -54
60 -49 64 1 2 66 43 143 91 233 147 406 265 400 275 -3 5 0 12 6 16 8 4 9 3 5
-4 -14 -23 6 -12 107 58 55 39 104 70 108 70 3 0 9 -21 13 -46z m-794 11 c0
-2 -10 -9 -22 -15 -22 -11 -22 -10 -4 4 21 17 26 19 26 11z m-1156 -95 c160
-76 217 -112 151 -96 -54 14 -345 160 -345 173 0 18 -19 25 194 -77z m-53 -35
c79 -36 160 -73 179 -82 19 -9 29 -18 22 -20 -21 -8 -372 145 -372 162 0 13
39 0 171 -60z m1189 60 c0 -2 -10 -9 -22 -15 -22 -11 -22 -10 -4 4 21 17 26
19 26 11z m-569 -56 l87 -41 5 -47 c3 -25 1 -70 -4 -100 -10 -63 -6 -87 27
-157 46 -96 106 -141 374 -282 192 -101 246 -134 248 -151 2 -11 -2 -21 -8
-21 -7 0 -118 56 -248 124 -131 68 -293 152 -362 186 -153 77 -184 99 -205
153 -34 84 -42 377 -11 377 6 0 50 -18 97 -41z m1129 17 c0 -2 -44 -32 -97
-66 -54 -34 -138 -87 -188 -119 -182 -117 -255 -161 -255 -153 0 8 157 109
405 261 136 84 135 83 135 77z m250 -31 c0 -2 -23 -18 -51 -34 -29 -16 -46
-32 -40 -36 13 -8 5 -25 -12 -25 -8 0 -8 3 2 9 17 11 -1 23 -23 15 -12 -5 -14
-10 -6 -19 9 -10 6 -16 -9 -25 -12 -6 -21 -7 -21 -3 0 4 -6 -1 -13 -12 -11
-14 -16 -15 -22 -5 -5 8 -4 11 2 7 6 -4 13 0 17 8 6 18 1 19 -25 4 -16 -8 -18
-13 -9 -24 15 -18 -21 -40 -38 -23 -8 8 -22 4 -51 -15 -22 -15 -44 -27 -48
-27 -12 1 106 75 232 147 116 66 115 66 115 58z m-10 -49 c0 -8 -8 -17 -17
-20 -24 -8 -33 -7 -32 2 0 4 7 6 16 4 10 -2 12 1 7 9 -4 8 -3 10 4 5 7 -4 12
-2 12 3 0 6 2 11 5 11 3 0 5 -6 5 -14z m-1062 -87 c83 -40 150 -74 148 -76 -5
-5 -308 136 -321 150 -15 15 2 8 173 -74z m-59 -13 c60 -30 108 -56 106 -58
-5 -4 -225 100 -225 107 0 9 7 6 119 -49z m1106 38 c-11 -8 -108 -67 -215
-131 -107 -63 -203 -125 -213 -137 -10 -11 -16 -15 -12 -8 11 21 -11 13 -66
-24 -77 -52 -88 -56 -85 -39 1 8 6 18 11 22 4 4 5 2 0 -6 -5 -9 -3 -12 6 -9 8
3 13 10 12 16 -2 6 19 26 45 44 26 17 41 24 33 15 -7 -9 -9 -17 -3 -17 12 0
33 25 26 32 -4 5 52 53 84 72 28 17 9 -3 -33 -33 -41 -29 -51 -51 -24 -51 6 0
7 5 4 10 -4 6 -3 10 2 9 22 -4 34 2 27 14 -4 6 -4 9 1 5 4 -4 16 3 27 15 11
12 16 16 12 8 -4 -9 -2 -12 7 -9 8 3 14 10 14 15 0 6 4 15 9 20 5 5 6 2 1 -6
-5 -9 -3 -12 6 -9 8 3 14 10 14 15 0 6 4 15 9 20 5 5 6 3 2 -4 -13 -23 8 -13
154 76 132 81 196 114 145 75z m-65 2 c0 -2 -35 -25 -77 -52 -43 -26 -93 -59
-112 -73 -31 -24 -33 -24 -21 -4 8 12 16 21 19 20 4 0 31 15 61 34 121 77 130
82 130 75z m-815 -215 c-7 -6 -345 161 -345 171 0 4 79 -31 175 -79 96 -48
172 -89 170 -92z m865 165 c-6 -8 -114 -83 -238 -167 -125 -84 -260 -177 -301
-206 -41 -28 -78 -50 -83 -47 -8 5 34 38 187 147 67 49 436 287 444 287 2 0
-2 -6 -9 -14z m-224 -31 c-11 -8 -25 -15 -30 -15 -6 1 0 7 14 15 32 19 40 18
16 0z m-745 -117 c132 -68 239 -127 239 -131 0 -8 -467 227 -484 244 -24 23
23 1 245 -113z m155 -116 c-8 -8 -416 185 -416 197 0 5 94 -36 209 -92 115
-56 208 -103 207 -105z m-106 172 c0 -2 -9 0 -20 6 -11 6 -20 13 -20 16 0 2 9
0 20 -6 11 -6 20 -13 20 -16z m95 16 c3 -6 -1 -7 -9 -4 -18 7 -21 14 -7 14 6
0 13 -4 16 -10z m507 -1 c-21 -18 -82 -49 -82 -42 0 4 -5 1 -10 -7 -5 -8 -13
-15 -17 -15 -8 0 -78 -41 -184 -107 -63 -40 -69 -43 -69 -30 0 5 35 28 78 52
42 24 109 64 147 88 39 25 75 45 82 45 7 0 14 5 16 12 3 6 14 11 26 11 11 0
17 -3 13 -7z m-512 -26 c12 -12 7 -11 -20 2 -45 22 -52 29 -20 20 14 -4 32
-14 40 -22z m-135 -122 c131 -60 249 -118 264 -130 14 -11 -75 25 -199 80
-124 56 -244 109 -266 119 -40 18 -66 40 -46 40 5 0 117 -49 247 -109z m1109
78 c-14 -23 -681 -455 -690 -447 -3 3 39 35 93 71 113 76 596 387 601 387 2 0
0 -5 -4 -11z m-1180 -98 c66 -32 175 -81 241 -111 116 -51 165 -80 137 -80
-21 0 -502 222 -525 242 l-22 19 24 -6 c13 -4 78 -33 145 -64z m266 44 c17 -9
30 -18 30 -21 0 -4 -59 23 -69 32 -10 9 13 3 39 -11z m185 -60 c-25 -20 -28
-28 -19 -42 9 -14 6 -21 -14 -37 -24 -19 -25 -19 -38 -1 -21 28 -18 32 39 70
61 40 74 44 32 10z m144 21 c-2 -2 -31 -25 -64 -50 -33 -25 -75 -57 -93 -72
-18 -15 -34 -25 -37 -22 -5 4 182 148 192 148 4 0 4 -2 2 -4z m-401 -150 c100
-47 189 -86 196 -86 8 0 19 -13 25 -30 5 -16 8 -30 6 -30 -13 0 -482 247 -503
266 -25 21 -22 20 33 -6 33 -16 142 -67 243 -114z m67 106 c-3 -3 -11 0 -18 7
-9 10 -8 11 6 5 10 -3 15 -9 12 -12z"/>
<path d="M3090 4571 c0 -3 55 -22 123 -40 182 -51 678 -201 699 -212 11 -6 24
-8 31 -6 22 8 -161 69 -503 167 -319 91 -350 99 -350 91z"/>
<path d="M3039 4503 c-1 -5 -1 -10 -1 -14 0 -3 -20 -11 -44 -18 -49 -15 -48
-24 6 -39 19 -5 116 -36 215 -67 99 -32 202 -64 229 -71 28 -8 58 -16 68 -20
10 -3 18 -1 18 5 0 5 -14 12 -31 16 l-31 7 22 15 c12 9 41 22 64 29 28 9 34
13 18 13 -13 1 -36 8 -53 16 -16 9 -34 13 -39 10 -6 -3 -10 -2 -10 3 0 17 -73
23 -90 7 -9 -8 -25 -15 -36 -15 -17 0 -17 2 5 19 22 17 22 18 5 25 -45 18 -66
16 -95 -9 -17 -14 -40 -25 -51 -25 -30 0 -128 30 -128 40 0 9 73 40 97 40 14
0 13 -4 -6 -21 -18 -17 -20 -23 -9 -30 21 -14 64 -10 78 6 19 23 6 39 -45 53
-39 10 -52 10 -76 -2 -28 -14 -29 -14 -23 10 6 22 3 24 -25 24 -17 0 -32 -3
-32 -7z m31 -52 c-9 -17 -14 -18 -41 -9 -36 12 -23 28 24 28 24 0 26 -2 17
-19z m240 -76 c-11 -13 -5 -15 41 -15 47 0 52 -2 39 -15 -13 -13 -24 -12 -89
9 -73 23 -77 34 -12 35 29 1 32 -1 21 -14z m168 -11 c-36 -19 -35 -21 5 -16
30 4 31 3 12 -11 -18 -13 -62 -22 -90 -18 -18 3 53 57 77 58 21 2 21 1 -4 -13z"/>
<path d="M2905 4376 c-18 -13 -18 -14 4 -21 13 -4 28 -2 34 4 17 17 31 13 17
-4 -15 -18 -9 -19 25 -3 31 14 32 24 3 32 -37 9 -63 7 -83 -8z"/>
<path d="M3035 4363 c-11 -3 -29 -12 -40 -19 -19 -14 -19 -14 1 -14 11 0 30 7
42 16 28 19 44 10 17 -10 -18 -13 -18 -14 3 -25 30 -16 46 -14 67 9 17 18 17
20 1 20 -9 0 -19 -7 -22 -15 -7 -18 -30 -20 -40 -3 -4 6 -3 8 3 5 6 -4 16 0
23 7 9 12 7 17 -9 25 -11 6 -21 10 -23 10 -2 -1 -12 -4 -23 -6z"/>
<path d="M3137 4312 c-22 -24 -13 -32 32 -32 27 0 32 3 21 10 -8 5 -24 7 -35
4 -19 -5 -19 -4 -2 10 17 13 21 13 37 -2 13 -11 16 -20 9 -28 -6 -8 -5 -14 7
-18 23 -9 66 -7 60 2 -3 5 1 9 10 9 9 0 12 -7 8 -19 -8 -26 32 -24 46 2 9 17
7 22 -14 29 -13 6 -34 7 -46 4 -16 -4 -21 -3 -16 5 4 7 1 13 -6 14 -29 3 -34
4 -55 16 -29 16 -37 15 -56 -6z m98 -42 c3 -5 1 -10 -4 -10 -6 0 -11 5 -11 10
0 6 2 10 4 10 3 0 8 -4 11 -10z m85 -9 c0 -5 -7 -11 -14 -14 -10 -4 -13 -1 -9
9 6 15 23 19 23 5z"/>
<path d="M3350 4261 c0 -5 14 -11 30 -15 27 -5 30 -8 20 -26 -14 -26 9 -28 31
-2 15 17 13 20 -23 35 -43 19 -58 21 -58 8z"/>
<path d="M3347 4234 c-14 -14 -7 -25 13 -22 12 2 21 8 21 13 0 12 -24 18 -34
9z"/>
<path d="M3447 4212 c-20 -21 -13 -32 18 -32 30 0 49 22 33 38 -17 17 -32 15
-51 -6z m43 -6 c0 -3 -4 -8 -10 -11 -5 -3 -10 -1 -10 4 0 6 5 11 10 11 6 0 10
-2 10 -4z"/>
<path d="M2735 4189 c-40 -24 -43 -41 -14 -70 11 -11 19 -22 17 -24 -2 -2 -28
3 -58 11 -58 15 -101 11 -119 -10 -15 -18 13 -42 75 -66 l49 -18 -30 -12 c-16
-6 -45 -14 -62 -17 -64 -11 -32 -23 61 -23 93 0 140 10 185 39 l23 15 -26 23
c-32 27 -29 28 24 7 45 -18 46 -21 24 -52 -15 -22 -15 -22 33 -22 26 0 66 5
88 11 42 12 105 67 105 92 0 30 -51 76 -108 98 -68 26 -235 37 -267 18z m213
-39 c59 -36 15 -75 -63 -57 l-45 10 27 19 c30 19 63 24 63 8 0 -5 -8 -14 -17
-19 -15 -9 -16 -10 -2 -11 9 0 23 8 33 19 16 17 15 19 -11 29 -15 6 -39 13
-53 15 -22 4 -22 4 5 6 17 0 45 -8 63 -19z"/>
<path d="M2386 4039 c-54 -42 -15 -110 82 -144 98 -35 246 -28 259 11 6 17
-14 22 -134 34 -59 7 -112 15 -116 20 -10 9 61 70 82 70 8 0 -5 -14 -28 -31
-24 -17 -41 -32 -39 -35 3 -2 27 5 54 16 27 10 58 22 69 26 16 5 8 11 -40 30
-78 30 -153 31 -189 3z"/>
<path d="M2015 3939 c-67 -23 -91 -39 -58 -39 12 0 25 5 28 10 11 17 54 11 65
-9 10 -19 11 -19 50 7 41 26 40 32 -5 45 -11 4 -47 -3 -80 -14z"/>
<path d="M2141 3914 c-35 -15 -40 -38 -12 -54 27 -14 31 -13 69 10 27 16 31
24 23 34 -18 21 -45 25 -80 10z m38 -30 c-12 -15 -49 -19 -49 -6 0 11 43 31
53 25 4 -3 3 -11 -4 -19z"/>
<path d="M2015 3900 c-16 -7 -17 -9 -3 -9 9 -1 20 4 23 9 7 11 7 11 -20 0z"/>
<path d="M2230 3862 l-24 -19 33 -17 c31 -16 34 -16 66 3 22 12 32 15 29 7 -3
-8 -15 -18 -27 -24 -21 -9 -21 -10 -3 -18 14 -5 23 -2 34 14 19 29 36 28 21 0
-12 -22 -11 -22 8 -5 11 9 25 17 32 17 7 0 9 5 6 10 -3 6 -15 10 -26 10 -11 0
-30 6 -42 14 -40 26 -82 29 -107 8z m70 -17 c-7 -8 -22 -14 -34 -14 -20 2 -20
2 2 6 12 2 22 9 22 14 0 5 5 9 11 9 8 0 8 -5 -1 -15z"/>
<path d="M2445 3800 c3 -5 18 -10 33 -10 l27 -1 -27 -15 c-36 -19 -35 -30 2
-43 19 -6 28 -6 25 -1 -7 12 5 16 60 24 38 5 38 5 10 -5 -16 -6 -37 -13 -45
-16 -12 -3 -10 -8 9 -24 31 -25 35 -24 70 13 26 28 28 34 15 41 -9 5 -31 7
-50 4 -28 -5 -34 -3 -34 12 0 13 -10 21 -31 25 -46 9 -71 7 -64 -4z m65 -40
c-14 -4 -32 -8 -40 -9 -13 -1 -13 0 0 9 8 5 26 9 40 9 l25 -1 -25 -8z m65 -40
c3 -5 2 -10 -4 -10 -5 0 -13 5 -16 10 -3 6 -2 10 4 10 5 0 13 -4 16 -10z"/>
<path d="M2379 3784 c-11 -14 -10 -15 11 -12 13 1 25 9 28 16 5 17 -23 15 -39
-4z"/>
<path d="M2915 3770 c-8 -13 50 -41 70 -34 12 5 7 11 -20 25 -40 22 -42 22
-50 9z"/>
<path d="M2663 3724 c-29 -14 -53 -29 -53 -34 0 -4 33 -20 74 -35 l73 -27 69
37 c55 29 62 35 36 31 -18 -3 -40 -13 -48 -21 -9 -8 -25 -17 -38 -21 -25 -6
-120 26 -119 41 0 6 23 18 49 28 44 16 51 16 76 2 28 -16 58 -20 58 -7 0 9
-80 32 -108 32 -9 -1 -41 -12 -69 -26z"/>
<path d="M2867 3744 c-4 -4 1 -13 11 -20 19 -15 36 -18 28 -5 -3 4 7 6 22 3
18 -3 24 -1 17 6 -13 13 -69 25 -78 16z"/>
<path d="M2735 3709 c15 -7 11 -8 -17 -4 -49 7 -58 -10 -13 -25 28 -9 43 -9
67 1 28 12 29 13 12 26 -10 7 -29 13 -43 12 -24 0 -24 -1 -6 -10z"/>
<path d="M1570 2994 c0 -13 3 -14 15 -4 9 8 29 10 57 5 31 -4 39 -3 28 4 -8 6
-34 11 -57 11 -33 0 -43 -4 -43 -16z"/>
<path d="M1598 2983 c6 -2 18 -2 25 0 6 3 1 5 -13 5 -14 0 -19 -2 -12 -5z"/>
<path d="M1728 2940 c-36 -22 -9 -60 42 -60 12 0 28 -6 36 -14 31 -32 175 -29
207 4 15 14 -11 47 -45 60 -45 17 -218 24 -240 10z m80 -11 c-10 -5 -18 -17
-18 -24 0 -19 -34 -19 -49 -1 -15 18 11 35 54 35 25 0 27 -1 13 -10z m47 -9
c-3 -6 4 -10 17 -10 42 0 52 -15 24 -33 -29 -19 -44 -21 -66 -7 -13 8 -12 11
5 25 11 9 15 14 8 11 -6 -4 -15 -1 -19 5 -4 8 -3 9 4 5 7 -4 12 -2 12 3 0 6 5
11 11 11 5 0 7 -4 4 -10z m52 4 c-3 -3 -12 -4 -19 -1 -8 3 -5 6 6 6 11 1 17
-2 13 -5z m49 -19 c12 -9 14 -14 6 -15 -7 0 -20 7 -28 15 -20 19 -4 20 22 0z
m-3 -42 c-7 -2 -19 -2 -25 0 -7 3 -2 5 12 5 14 0 19 -2 13 -5z"/>
<path d="M1855 2890 c-7 -12 2 -12 30 0 19 8 19 9 -2 9 -12 1 -25 -3 -28 -9z"/>
<path d="M2861 1301 c-9 -6 -10 -11 -2 -15 6 -4 11 -2 11 4 0 6 5 8 12 4 7 -4
8 -3 4 4 -8 14 -7 14 -25 3z"/>
<path d="M2777 1254 c-11 -11 3 -24 18 -18 8 4 12 10 9 15 -6 11 -18 12 -27 3z"/>
<path d="M2460 990 c-14 -11 -20 -20 -15 -20 6 0 21 9 35 20 14 11 21 20 15
20 -5 0 -21 -9 -35 -20z"/>
</g>
</svg>